<svg width="256" height="256" viewBox="0 0 256 256" fill="none" xmlns="http://www.w3.org/2000/svg">
<path fill-rule="evenodd" clip-rule="evenodd" d="M93.3934 98.5904L128.177 106.814L44.9448 209.067L12.0752 192.23L93.3934 98.5904Z" fill="black"/>
<path fill-rule="evenodd" clip-rule="evenodd" d="M0 96.2254V131.175L57.8447 131.299L87.8512 96.7026L0 96.2254Z" fill="black"/>
<path fill-rule="evenodd" clip-rule="evenodd" d="M92.3508 93.6837L131.338 102.048L137.454 95.6262L137.469 83.3565L124.284 75.7317L92.3508 93.6837Z" fill="black"/>
<path fill-rule="evenodd" clip-rule="evenodd" d="M103.791 144.041L137.786 102.263L137.309 148.808L122.217 158.816L103.791 144.041Z" fill="black"/>
<path fill-rule="evenodd" clip-rule="evenodd" d="M141.44 81.4503L141.282 151.033L167.556 140.141L167.774 94.4644L141.44 81.4503Z" fill="black"/>
<path fill-rule="evenodd" clip-rule="evenodd" d="M171.893 96.3964L171.709 141.66L214.283 209.687L238.589 192.212L171.893 96.3964Z" fill="black"/>
<path fill-rule="evenodd" clip-rule="evenodd" d="M177.677 96.119L256 96.5781L255.681 130.892L201.358 130.677L177.244 96.119H177.677Z" fill="black"/>
</svg>
