<svg width="256" height="134" viewBox="0 0 256 134" fill="none" xmlns="http://www.w3.org/2000/svg">
<g clip-path="url(#clip0_71_2)">
<path fill-rule="evenodd" clip-rule="evenodd" d="M93.3934 22.8587L128.177 31.0826L44.9448 133.335L12.0752 116.499L93.3934 22.8587Z" fill="black"/>
<path fill-rule="evenodd" clip-rule="evenodd" d="M0 20.4937V55.4433L57.8447 55.5678L87.8512 20.9709L0 20.4937Z" fill="black"/>
<path fill-rule="evenodd" clip-rule="evenodd" d="M92.3508 17.952L131.338 26.3159L137.454 19.8945L137.469 7.6248L124.284 0L92.3508 17.952Z" fill="black"/>
<path fill-rule="evenodd" clip-rule="evenodd" d="M103.791 68.3092L137.786 26.5311L137.309 73.0761L122.217 83.0842L103.791 68.3092Z" fill="black"/>
<path fill-rule="evenodd" clip-rule="evenodd" d="M141.44 5.71863L141.282 75.3014L167.556 64.4088L167.774 18.7327L141.44 5.71863Z" fill="black"/>
<path fill-rule="evenodd" clip-rule="evenodd" d="M171.893 20.6647L171.709 65.9285L214.283 133.955L238.589 116.48L171.893 20.6647Z" fill="black"/>
<path fill-rule="evenodd" clip-rule="evenodd" d="M177.677 20.3873L256 20.8464L255.681 55.1606L201.358 54.9453L177.244 20.3873H177.677Z" fill="black"/>
</g>
<defs>
<clipPath id="clip0_71_2">
<rect width="256" height="134" fill="white"/>
</clipPath>
</defs>
</svg>
