<svg width="1307" height="240" viewBox="0 0 1307 240" fill="none" xmlns="http://www.w3.org/2000/svg">
<g clip-path="url(#clip0_61_19)">
<path fill-rule="evenodd" clip-rule="evenodd" d="M94.5171 89.567L129.719 97.8898L45.4856 201.373L12.2205 184.333L94.5171 89.567Z" fill="black"/>
<path fill-rule="evenodd" clip-rule="evenodd" d="M0 87.1732V122.543L58.5407 122.669L88.9081 87.6562L0 87.1732Z" fill="black"/>
<path fill-rule="evenodd" clip-rule="evenodd" d="M93.4619 84.6011L132.919 93.0657L139.108 86.567L139.123 74.1496L125.779 66.4331L93.4619 84.6011Z" fill="black"/>
<path fill-rule="evenodd" clip-rule="evenodd" d="M105.039 135.564L139.444 93.2834L138.961 140.388L123.688 150.517L105.039 135.564Z" fill="black"/>
<path fill-rule="evenodd" clip-rule="evenodd" d="M143.142 72.2205L142.982 142.64L169.572 131.617L169.793 85.3911L143.142 72.2205Z" fill="black"/>
<path fill-rule="evenodd" clip-rule="evenodd" d="M173.961 87.3464L173.775 133.155L216.861 202L241.46 184.315L173.961 87.3464Z" fill="black"/>
<path fill-rule="evenodd" clip-rule="evenodd" d="M179.815 87.0657L259.08 87.5302L258.757 122.257L203.781 122.039L179.377 87.0657H179.815Z" fill="black"/>
<path d="M358.096 181L324.56 88.84H335.568L362.576 162.824L389.456 88.84H402L429.008 162.824L455.76 88.84H467.024L433.488 181H424.4L395.728 102.28L367.056 181H358.096ZM479.511 181C476.695 181 474.092 180.317 471.703 178.952C469.399 177.501 467.522 175.624 466.071 173.32C464.706 170.931 464.023 168.328 464.023 165.512V122.248C464.023 119.432 464.706 116.872 466.071 114.568C467.522 112.179 469.399 110.301 471.703 108.936C474.092 107.485 476.695 106.76 479.511 106.76H524.055C526.956 106.76 529.559 107.485 531.863 108.936C534.252 110.301 536.13 112.179 537.495 114.568C538.946 116.872 539.671 119.432 539.671 122.248V149.128H474.519V165.512C474.519 166.877 474.988 168.072 475.927 169.096C476.951 170.035 478.146 170.504 479.511 170.504H539.671V181H479.511ZM474.519 138.632H529.047V122.248C529.047 120.883 528.535 119.731 527.511 118.792C526.572 117.768 525.42 117.256 524.055 117.256H479.511C478.146 117.256 476.951 117.768 475.927 118.792C474.988 119.731 474.519 120.883 474.519 122.248V138.632ZM549.192 181V82.44H559.688V106.76H609.352C612.168 106.76 614.728 107.485 617.032 108.936C619.421 110.301 621.299 112.179 622.664 114.568C624.115 116.872 624.84 119.432 624.84 122.248V165.512C624.84 168.328 624.115 170.931 622.664 173.32C621.299 175.624 619.421 177.501 617.032 178.952C614.728 180.317 612.168 181 609.352 181H549.192ZM564.808 170.504H609.352C610.717 170.504 611.869 170.035 612.808 169.096C613.832 168.072 614.344 166.877 614.344 165.512V122.248C614.344 120.883 613.832 119.731 612.808 118.792C611.869 117.768 610.717 117.256 609.352 117.256H564.808C563.443 117.256 562.248 117.768 561.224 118.792C560.2 119.731 559.688 120.883 559.688 122.248V165.512C559.688 166.877 560.2 168.072 561.224 169.096C562.248 170.035 563.443 170.504 564.808 170.504ZM666.055 181V99.208H625.095V88.84H717.255V99.208H676.423V181H666.055ZM732.716 181C729.9 181 727.297 180.317 724.908 178.952C722.604 177.501 720.727 175.624 719.276 173.32C717.911 170.931 717.228 168.328 717.228 165.512V122.248C717.228 119.432 717.911 116.872 719.276 114.568C720.727 112.179 722.604 110.301 724.908 108.936C727.297 107.485 729.9 106.76 732.716 106.76H777.26C780.161 106.76 782.764 107.485 785.068 108.936C787.457 110.301 789.335 112.179 790.7 114.568C792.151 116.872 792.876 119.432 792.876 122.248V149.128H727.724V165.512C727.724 166.877 728.193 168.072 729.132 169.096C730.156 170.035 731.351 170.504 732.716 170.504H792.876V181H732.716ZM727.724 138.632H782.252V122.248C782.252 120.883 781.74 119.731 780.716 118.792C779.777 117.768 778.625 117.256 777.26 117.256H732.716C731.351 117.256 730.156 117.768 729.132 118.792C728.193 119.731 727.724 120.883 727.724 122.248V138.632ZM817.561 181C814.745 181 812.142 180.317 809.753 178.952C807.449 177.501 805.572 175.624 804.121 173.32C802.756 170.931 802.073 168.328 802.073 165.512V122.248C802.073 119.432 802.756 116.872 804.121 114.568C805.572 112.179 807.449 110.301 809.753 108.936C812.142 107.485 814.745 106.76 817.561 106.76H877.465V117.256H817.561C816.196 117.256 815.001 117.768 813.977 118.792C813.038 119.731 812.569 120.883 812.569 122.248V165.512C812.569 166.877 813.038 168.072 813.977 169.096C815.001 170.035 816.196 170.504 817.561 170.504H877.721V181H817.561ZM887.022 181V82.44H897.518V106.76H947.182C949.998 106.76 952.558 107.485 954.862 108.936C957.251 110.301 959.129 112.179 960.494 114.568C961.945 116.872 962.67 119.432 962.67 122.248V181H952.174V122.248C952.174 120.883 951.662 119.731 950.638 118.792C949.699 117.768 948.547 117.256 947.182 117.256H902.638C901.273 117.256 900.078 117.768 899.054 118.792C898.03 119.731 897.518 120.883 897.518 122.248V181H887.022ZM1131.8 89.896C1131.28 91.04 1130.13 91.768 1128.37 92.08C1126.7 92.392 1125.14 92.496 1123.69 92.392C1122.85 92.392 1121.97 92.392 1121.03 92.392C1120.1 92.288 1119.16 92.184 1118.23 92.08C1113.55 91.872 1108.61 91.716 1103.41 91.612C1098.31 91.404 1093.73 91.664 1089.68 92.392C1088.95 93.848 1088.01 95.304 1086.87 96.76C1085.73 98.112 1084.69 99.256 1083.75 100.192C1082.81 101.128 1082.35 101.596 1082.35 101.596C1083.91 101.596 1085.47 101.544 1087.03 101.44C1088.69 101.232 1090.35 101.024 1092.02 100.816C1094.1 100.608 1096.18 100.452 1098.26 100.348C1100.44 100.14 1102.57 100.036 1104.65 100.036C1107.67 100.14 1110.58 100.504 1113.39 101.128C1116.2 101.752 1118.9 102.948 1121.5 104.716C1121.09 105.964 1121.03 106.9 1121.35 107.524C1121.66 108.148 1122.02 108.668 1122.44 109.084C1122.85 109.5 1123.17 109.968 1123.37 110.488C1123.69 110.904 1123.69 111.58 1123.37 112.516C1121.71 112.204 1120.36 112.308 1119.32 112.828C1118.38 113.244 1117.5 113.712 1116.67 114.232C1116.25 114.544 1115.83 114.804 1115.42 115.012C1115.11 115.22 1114.69 115.428 1114.17 115.636C1114.27 117.924 1114.38 120.108 1114.48 122.188C1114.59 124.268 1114.69 126.244 1114.79 128.116C1115 131.756 1115.16 135.344 1115.26 138.88C1115.37 142.312 1115.37 146.004 1115.26 149.956C1115.26 153.908 1115.05 158.484 1114.64 163.684C1114.43 163.892 1114.01 164.048 1113.39 164.152C1112.87 164.256 1112.4 164.464 1111.99 164.776C1111.67 164.984 1111.67 165.556 1111.99 166.492C1109.59 167.844 1107.77 168 1106.53 166.96C1105.28 165.816 1104.08 164.464 1102.94 162.904C1102.63 162.384 1102.31 161.916 1102 161.5C1101.69 161.084 1101.38 160.668 1101.07 160.252C1099.61 160.46 1097.95 160.616 1096.07 160.72C1094.2 160.824 1092.23 160.876 1090.15 160.876C1085.88 160.98 1081.46 161.24 1076.89 161.656C1072.41 161.968 1068.41 163.008 1064.87 164.776C1063.21 163.32 1061.44 162.02 1059.57 160.876C1057.8 159.628 1056.81 157.86 1056.61 155.572C1056.5 154.74 1056.55 153.908 1056.76 153.076C1056.97 152.14 1057.23 151.152 1057.54 150.112C1058.17 148.24 1058.53 146.368 1058.63 144.496C1058.84 142.624 1057.96 141.064 1055.98 139.816C1055.88 139.192 1056.29 138.932 1057.23 139.036C1058.27 139.14 1058.79 139.192 1058.79 139.192C1058.79 138.36 1058.79 137.528 1058.79 136.696C1058.89 135.76 1059 134.876 1059.1 134.044C1059.31 131.86 1059.36 129.832 1059.26 127.96C1059.15 126.088 1058.27 124.84 1056.61 124.216C1056.71 123.384 1057.23 122.968 1058.17 122.968C1059.1 122.968 1059.62 122.604 1059.73 121.876C1059.52 119.068 1058.37 117.196 1056.29 116.26C1054.21 115.324 1052.03 114.492 1049.74 113.764C1050.26 112.724 1050.99 111.892 1051.93 111.268C1052.86 110.644 1053.75 110.02 1054.58 109.396C1055.41 108.668 1055.88 107.628 1055.98 106.276C1058.69 105.548 1061.44 105.028 1064.25 104.716C1067.16 104.404 1069.61 103.572 1071.58 102.22C1073.66 100.868 1074.86 98.84 1075.17 96.136C1074.03 94.472 1072.36 93.64 1070.18 93.64C1068.51 93.64 1066.69 94.056 1064.72 94.888C1062.85 95.72 1060.92 96.552 1058.95 97.384C1057.07 98.112 1055.31 98.476 1053.64 98.476C1052.5 98.476 1051.41 98.164 1050.37 97.54C1049.43 96.916 1048.65 95.824 1048.03 94.264C1047.71 94.472 1047.35 94.368 1046.93 93.952C1046.41 93.64 1046.1 93.796 1046 94.42C1044.85 92.652 1043.71 90.884 1042.57 89.116C1041.53 87.348 1040.75 85.268 1040.23 82.876C1041.79 82.668 1043.24 82.772 1044.59 83.188C1046.05 83.5 1047.45 83.864 1048.81 84.28C1050.05 84.696 1051.3 85.06 1052.55 85.372C1053.8 85.684 1055.1 85.788 1056.45 85.684C1061.96 85.06 1067.79 84.54 1073.92 84.124C1080.06 83.604 1087.39 83.136 1095.92 82.72C1098.21 80.016 1099.97 76.844 1101.22 73.204C1102.57 69.46 1104.19 65.976 1106.06 62.752C1105.02 61.504 1104.29 60.256 1103.87 59.008C1103.46 57.76 1103.2 56.46 1103.09 55.108C1104.34 54.588 1105.9 54.64 1107.77 55.264C1109.65 55.784 1111.52 56.668 1113.39 57.916C1115.37 59.06 1116.98 60.36 1118.23 61.816C1119.58 63.272 1120.25 64.572 1120.25 65.716C1120.36 67.38 1119.89 68.784 1118.85 69.928C1117.81 71.072 1116.56 72.06 1115.11 72.892C1113.13 74.036 1111.1 75.128 1109.02 76.168C1106.94 77.208 1105.59 78.508 1104.97 80.068C1104.24 79.86 1104.13 79.548 1104.65 79.132C1105.17 78.716 1105.43 78.508 1105.43 78.508C1104.6 78.508 1104.03 78.664 1103.72 78.976C1103.41 79.288 1103.15 79.6 1102.94 79.912C1102.73 80.432 1102.37 80.848 1101.85 81.16C1101.43 81.472 1100.49 81.576 1099.04 81.472C1099.04 81.888 1099.4 82.252 1100.13 82.564C1100.96 82.772 1101.9 82.876 1102.94 82.876C1104.5 82.876 1106.11 82.668 1107.77 82.252C1109.44 81.836 1110.48 81.264 1110.89 80.536C1115.16 81.368 1119.16 82.564 1122.91 84.124C1126.75 85.58 1129.72 87.504 1131.8 89.896ZM1144.9 181.156C1144.9 182.716 1144.43 183.912 1143.5 184.744C1142.56 185.68 1141.47 186.408 1140.22 186.928C1139.08 187.552 1138.04 188.176 1137.1 188.8C1136.17 189.424 1135.65 190.308 1135.54 191.452C1132.11 191.764 1128.63 192.44 1125.09 193.48C1121.66 194.52 1118.17 195.04 1114.64 195.04C1109.75 195.04 1104.86 194.312 1099.97 192.856C1095.09 191.504 1090.51 189.944 1086.25 188.176C1082.09 186.408 1078.6 184.9 1075.79 183.652C1073.82 182.716 1070.96 181.52 1067.21 180.064C1063.57 178.608 1059.57 177.308 1055.2 176.164C1050.83 175.02 1046.57 174.448 1042.41 174.448C1038.56 174.448 1034.77 174.916 1031.02 175.852C1027.28 176.684 1023.79 178.14 1020.57 180.22C1019.01 180.532 1017.76 180.48 1016.83 180.064C1015.99 179.648 1015.21 179.18 1014.49 178.66C1014.07 178.348 1013.65 178.088 1013.24 177.88C1012.82 177.568 1012.35 177.308 1011.83 177.1C1011.52 175.956 1010.95 174.968 1010.12 174.136C1009.39 173.304 1008.61 172.472 1007.78 171.64C1006.74 170.6 1005.75 169.508 1004.81 168.364C1003.98 167.116 1003.67 165.66 1003.88 163.996C1004.71 163.892 1005.59 163.944 1006.53 164.152C1007.57 164.36 1008.66 164.62 1009.81 164.932C1011.47 165.348 1013.29 165.764 1015.27 166.18C1017.35 166.492 1019.69 166.492 1022.29 166.18C1023.01 166.076 1023.69 165.92 1024.31 165.712C1025.04 165.504 1025.72 165.296 1026.34 165.088C1027.28 164.776 1028.27 164.516 1029.31 164.308C1030.35 164.1 1031.39 164.048 1032.43 164.152C1033.36 161.76 1033.83 159.68 1033.83 157.912C1033.83 154.896 1032.95 152.452 1031.18 150.58C1029.41 148.708 1027.49 146.992 1025.41 145.432C1023.64 144.08 1022.03 142.728 1020.57 141.376C1019.22 139.92 1018.54 138.152 1018.54 136.072C1018.65 133.888 1019.37 132.068 1020.73 130.612C1022.18 129.156 1023.64 127.648 1025.09 126.088C1026.65 124.528 1027.59 122.552 1027.9 120.16C1026.03 119.328 1023.95 119.224 1021.66 119.848C1019.48 120.368 1017.29 120.992 1015.11 121.72C1013.76 122.24 1012.46 122.708 1011.21 123.124C1009.96 123.436 1008.87 123.592 1007.93 123.592C1005.75 121.408 1003.77 119.068 1002.01 116.572C1000.34 113.972 998.99 111.788 997.95 110.02C997.014 108.148 996.546 107.212 996.546 107.212C999.458 107.94 1002.89 108.668 1006.84 109.396C1010.79 110.02 1014.8 110.176 1018.85 109.864C1022.91 109.448 1026.5 108.2 1029.62 106.12C1031.28 106.64 1033.26 107.368 1035.55 108.304C1037.94 109.24 1040.12 110.332 1042.1 111.58C1044.18 112.724 1045.53 114.076 1046.15 115.636C1046.15 117.3 1045.58 118.444 1044.44 119.068C1043.29 119.692 1042.1 120.264 1040.85 120.784C1038.77 123.488 1036.74 126.348 1034.77 129.364C1032.89 132.276 1031.13 135.344 1029.46 138.568C1031.44 140.752 1033.62 142.728 1036.01 144.496C1038.41 146.264 1040.49 148.24 1042.25 150.424C1044.02 152.608 1044.91 155.364 1044.91 158.692C1044.91 160.668 1044.54 162.748 1043.81 164.932C1049.64 165.14 1055.77 165.868 1062.22 167.116C1068.67 168.26 1075.12 169.404 1081.57 170.548C1088.12 171.692 1094.36 172.368 1100.29 172.576C1102.57 172.68 1104.76 172.732 1106.84 172.732C1109.02 172.628 1111.15 172.524 1113.23 172.42C1117.29 172.316 1121.09 172.316 1124.62 172.42C1128.26 172.524 1131.59 173.096 1134.61 174.136C1136.58 174.76 1138.4 175.644 1140.07 176.788C1141.83 177.932 1143.45 179.388 1144.9 181.156ZM1100.75 152.92C1101.07 150.84 1101.17 148.916 1101.07 147.148C1101.07 145.276 1101.01 143.404 1100.91 141.532C1100.91 140.596 1100.86 139.66 1100.75 138.724C1100.75 137.684 1100.75 136.644 1100.75 135.604C1100.75 134.876 1100.75 134.2 1100.75 133.576C1100.75 132.848 1100.75 132.068 1100.75 131.236C1100.86 127.492 1100.81 123.488 1100.6 119.224C1100.39 114.856 1099.45 111.06 1097.79 107.836C1092.49 107.94 1087.49 108.304 1082.81 108.928C1078.13 109.552 1073.97 110.748 1070.33 112.516C1070.02 113.868 1069.76 115.272 1069.55 116.728C1069.35 118.184 1069.35 119.796 1069.55 121.564C1075.07 120.732 1079.95 120.42 1084.22 120.628C1088.59 120.732 1092.23 122.604 1095.14 126.244C1090.77 126.868 1086.19 127.544 1081.41 128.272C1076.63 128.896 1072.57 129.26 1069.24 129.364C1068.83 130.404 1068.67 131.704 1068.77 133.264C1068.88 134.72 1068.77 136.02 1068.46 137.164C1071.89 136.644 1075.33 136.28 1078.76 136.072C1082.29 135.76 1085.67 136.02 1088.9 136.852C1092.23 137.58 1095.19 139.244 1097.79 141.844C1088.22 143.092 1078.71 144.132 1069.24 144.964C1069.24 145.38 1069.24 145.848 1069.24 146.368C1069.24 146.784 1069.24 147.252 1069.24 147.772C1069.24 148.604 1069.19 149.54 1069.09 150.58C1069.09 151.516 1069.03 152.452 1068.93 153.388C1072.15 153.596 1075.07 153.648 1077.67 153.544C1080.27 153.336 1082.76 153.128 1085.15 152.92C1087.86 152.608 1090.46 152.4 1092.95 152.296C1095.45 152.192 1098.05 152.4 1100.75 152.92ZM1030.55 88.18C1027.75 89.22 1025.3 89.532 1023.22 89.116C1021.25 88.7 1019.48 87.816 1017.92 86.464C1015.53 84.384 1013.55 81.68 1011.99 78.352C1010.43 74.92 1008.87 71.904 1007.31 69.304C1010.53 69.928 1013.86 70.864 1017.29 72.112C1020.83 73.36 1023.85 75.232 1026.34 77.728C1028.84 80.224 1030.24 83.708 1030.55 88.18ZM1074.23 72.58C1075.17 75.804 1074.65 79.236 1072.67 82.876C1070.18 82.876 1068.25 82.252 1066.9 81.004C1065.55 79.756 1064.3 78.352 1063.16 76.792C1062.53 75.96 1061.86 75.128 1061.13 74.296C1060.51 73.464 1059.73 72.736 1058.79 72.112C1059.21 69.408 1059.36 67.224 1059.26 65.56C1059.26 63.792 1059.15 62.024 1058.95 60.256C1058.95 60.048 1058.95 59.892 1058.95 59.788C1062.27 60.516 1065.39 62.024 1068.31 64.312C1071.32 66.496 1073.3 69.252 1074.23 72.58ZM1293.26 123.436C1292.53 125.62 1291.18 126.816 1289.2 127.024C1288.47 127.128 1287.69 127.128 1286.86 127.024C1286.03 126.92 1285.2 126.764 1284.37 126.556C1283.95 126.452 1283.48 126.348 1282.96 126.244C1282.44 126.14 1281.97 126.088 1281.56 126.088C1274.9 125.464 1267.57 125.152 1259.56 125.152C1251.35 125.152 1242.92 125.464 1234.29 126.088C1233.56 126.92 1232.78 127.96 1231.95 129.208C1231.22 130.352 1230.65 131.34 1230.23 132.172C1231.69 132.38 1233.46 132.432 1235.54 132.328C1237.72 132.224 1240.06 132.12 1242.56 132.016C1244.74 131.912 1246.98 131.808 1249.27 131.704C1251.55 131.6 1253.74 131.6 1255.82 131.704C1256.34 131.392 1256.7 130.976 1256.91 130.456C1257.12 129.936 1257.43 129.52 1257.85 129.208C1262.21 128.48 1265.96 128.74 1269.08 129.988C1272.3 131.132 1275.42 132.588 1278.44 134.356C1279.69 135.084 1280.99 135.812 1282.34 136.54C1283.69 137.164 1285.09 137.788 1286.55 138.412C1286.55 138.724 1286.65 139.14 1286.86 139.66C1286.97 139.972 1287.07 140.336 1287.17 140.752C1287.28 141.064 1287.28 141.48 1287.17 142C1285.2 142.416 1283.43 143.04 1281.87 143.872C1280.31 144.704 1278.65 145.432 1276.88 146.056C1277.19 146.68 1277.24 147.2 1277.03 147.616C1276.83 148.032 1276.51 148.5 1276.1 149.02C1275.89 149.332 1275.63 149.696 1275.32 150.112C1275.11 150.424 1274.95 150.788 1274.85 151.204C1274.02 153.492 1273.19 156.404 1272.35 159.94C1271.52 163.476 1270.53 166.856 1269.39 170.08C1268.25 173.2 1266.79 175.436 1265.02 176.788C1265.02 177.1 1265.13 177.464 1265.33 177.88C1265.65 178.296 1265.75 178.66 1265.65 178.972C1262.42 181.676 1259.61 184.432 1257.22 187.24C1254.83 190.152 1252.13 192.18 1249.11 193.324C1246.09 194.468 1242.87 194.416 1239.44 193.168C1236.11 192.024 1233.2 190.516 1230.7 188.644C1229.35 187.604 1228 186.408 1226.65 185.056C1225.4 183.704 1224.51 183.028 1223.99 183.028C1223.58 183.028 1223.11 183.184 1222.59 183.496C1222.17 183.912 1221.76 184.328 1221.34 184.744C1221.03 185.056 1220.72 185.316 1220.41 185.524C1220.09 185.836 1219.78 186.044 1219.47 186.148C1217.39 186.668 1215.83 186.616 1214.79 185.992C1213.75 185.368 1212.76 184.64 1211.83 183.808C1211.51 183.496 1211.15 183.184 1210.73 182.872C1210.42 182.56 1210.06 182.248 1209.64 181.936C1211.62 181.208 1213.23 180.116 1214.48 178.66C1215.83 177.1 1217.08 175.54 1218.22 173.98C1219.47 172.316 1220.93 171.016 1222.59 170.08C1222.59 170.6 1222.33 171.172 1221.81 171.796C1221.5 172.108 1221.24 172.472 1221.03 172.888C1220.82 173.2 1220.82 173.668 1221.03 174.292C1222.17 173.252 1223.16 172.056 1223.99 170.704C1224.83 169.352 1225.5 167.48 1226.02 165.088C1230.29 161.76 1233.72 157.912 1236.32 153.544C1238.92 149.072 1241.52 144.184 1244.12 138.88C1243.49 138.152 1242.56 137.892 1241.31 138.1C1240.06 138.308 1238.92 138.568 1237.88 138.88C1237.57 139.92 1237.57 141.48 1237.88 143.56C1235.49 146.16 1233.09 148.864 1230.7 151.672C1228.41 154.48 1225.66 156.872 1222.43 158.848C1222.95 159.576 1222.75 160.408 1221.81 161.344C1220.87 162.28 1219.73 163.32 1218.38 164.464C1217.96 164.88 1217.55 165.244 1217.13 165.556C1216.71 165.868 1216.3 166.232 1215.88 166.648C1215.15 167.376 1214.43 168.208 1213.7 169.144C1213.07 169.976 1212.4 170.652 1211.67 171.172C1211.25 171.484 1210.73 171.692 1210.11 171.796C1209.49 171.9 1209.02 172.056 1208.71 172.264C1207.35 173.304 1206.21 174.396 1205.27 175.54C1204.34 176.684 1203.09 177.308 1201.53 177.412C1201.11 177.412 1200.75 177.36 1200.44 177.256C1200.23 177.152 1199.97 177.048 1199.66 176.944C1199.45 176.84 1199.19 176.736 1198.88 176.632C1198.57 176.424 1198.25 176.32 1197.94 176.32C1197.94 174.968 1197.63 174.136 1197.01 173.824C1196.38 173.512 1195.97 172.992 1195.76 172.264C1197.32 171.952 1198.51 171.38 1199.35 170.548C1200.28 169.716 1201.22 168.884 1202.15 168.052C1203.19 167.22 1204.49 166.752 1206.05 166.648C1205.64 165.816 1206 164.88 1207.15 163.84C1208.29 162.696 1209.49 162.072 1210.73 161.968C1210.63 161.656 1210.32 161.5 1209.8 161.5C1209.38 161.5 1209.17 161.5 1209.17 161.5C1212.19 158.588 1215.15 155.468 1218.07 152.14C1220.98 148.812 1223.84 145.276 1226.65 141.532C1224.67 141.116 1222.75 141.584 1220.87 142.936C1219.11 144.288 1217.49 145.64 1216.04 146.992C1215.93 147.096 1215.83 147.2 1215.73 147.304C1213.75 149.176 1211.77 151.152 1209.8 153.232C1207.93 155.312 1205.64 156.872 1202.93 157.912C1202.41 158.12 1201.22 158.692 1199.35 159.628C1197.58 160.46 1195.71 160.876 1193.73 160.876C1193.63 160.044 1193.16 159.628 1192.33 159.628C1191.49 159.524 1190.97 159.108 1190.77 158.38C1191.81 156.612 1193.11 155.156 1194.67 154.012C1196.23 152.868 1197.63 151.568 1198.88 150.112C1196.59 150.528 1193.68 151.256 1190.14 152.296C1186.61 153.232 1183.02 154.428 1179.38 155.884C1176.88 156.924 1174.49 158.016 1172.2 159.16C1169.91 160.304 1167.89 161.604 1166.12 163.06C1165.91 163.268 1165.65 163.528 1165.34 163.84C1165.13 164.048 1164.92 164.256 1164.71 164.464C1163.78 165.4 1162.74 166.232 1161.59 166.96C1160.45 167.584 1158.89 167.48 1156.91 166.648C1155.87 166.128 1154.63 165.14 1153.17 163.684C1151.71 162.228 1150.36 160.98 1149.11 159.94C1148.8 159.628 1148.49 159.368 1148.18 159.16C1147.97 158.952 1147.71 158.744 1147.4 158.536C1146.36 157.6 1145.63 156.768 1145.21 156.04C1144.9 155.312 1144.85 153.856 1145.06 151.672C1145.06 151.672 1145.27 151.776 1145.68 151.984C1146.1 152.192 1146.41 151.932 1146.62 151.204C1149.01 152.348 1151.45 152.972 1153.95 153.076C1156.55 153.18 1159.1 152.972 1161.59 152.452C1164.3 151.932 1166.95 151.152 1169.55 150.112C1172.15 149.072 1174.59 148.084 1176.88 147.148C1177.4 143.3 1177.66 139.14 1177.66 134.668C1177.77 130.196 1177.82 125.568 1177.82 120.784C1177.82 119.744 1177.82 118.756 1177.82 117.82C1177.82 116.78 1177.82 115.792 1177.82 114.856C1176.05 114.648 1174.33 114.752 1172.67 115.168C1171.11 115.584 1169.55 116.104 1167.99 116.728C1166.43 117.248 1164.82 117.768 1163.15 118.288C1161.49 118.704 1159.72 118.912 1157.85 118.912C1155.15 117.144 1152.7 114.804 1150.52 111.892C1148.33 108.876 1146.51 105.548 1145.06 101.908C1148.07 100.66 1151.25 100.608 1154.57 101.752C1157.9 102.792 1160.55 104.248 1162.53 106.12C1165.03 105.6 1167.42 105.08 1169.71 104.56C1171.99 103.936 1174.39 103.416 1176.88 103C1177.09 94.264 1176.41 87.088 1174.85 81.472C1173.4 75.752 1171.16 70.812 1168.15 66.652C1168.15 65.82 1168.35 65.3 1168.77 65.092C1169.29 64.78 1169.6 64.26 1169.71 63.532C1172.2 64.676 1174.85 65.768 1177.66 66.808C1180.57 67.848 1183.17 69.096 1185.46 70.552C1187.75 71.904 1189.15 73.828 1189.67 76.324C1189.88 77.052 1189.88 77.78 1189.67 78.508C1189.57 79.132 1189.36 79.704 1189.05 80.224C1188.95 80.64 1188.84 81.056 1188.74 81.472C1188.63 81.784 1188.58 82.096 1188.58 82.408C1188.58 83.136 1188.58 83.864 1188.58 84.592C1188.58 85.32 1188.58 86.048 1188.58 86.776C1188.69 88.44 1188.74 90.26 1188.74 92.236C1188.74 94.108 1188.53 96.344 1188.11 98.944C1190.51 100.4 1193.26 101.544 1196.38 102.376C1199.5 103.104 1202.05 104.352 1204.03 106.12C1202.99 108.616 1201.01 110.124 1198.1 110.644C1195.19 111.164 1192.22 111.684 1189.21 112.204C1188.37 115.428 1187.8 118.912 1187.49 122.656C1187.18 126.296 1186.71 129.312 1186.09 131.704C1186.71 132.12 1186.97 132.744 1186.87 133.576C1186.87 134.408 1186.45 134.98 1185.62 135.292C1185.62 135.396 1185.67 135.604 1185.77 135.916C1186.19 136.644 1186.55 137.684 1186.87 139.036C1187.18 140.284 1186.76 141.272 1185.62 142C1187.07 143.352 1189 144.184 1191.39 144.496C1193.78 144.704 1196.12 145.068 1198.41 145.588C1198.83 145.796 1199.03 146.056 1199.03 146.368C1199.03 146.68 1198.98 146.992 1198.88 147.304C1198.77 147.616 1198.67 147.928 1198.57 148.24C1198.57 148.552 1198.67 148.864 1198.88 149.176C1201.48 148.344 1203.51 147.044 1204.96 145.276C1206.52 143.404 1208.29 141.792 1210.27 140.44C1210.27 140.024 1210.11 139.712 1209.8 139.504C1209.59 139.296 1209.38 139.088 1209.17 138.88C1208.76 138.672 1208.45 138.464 1208.24 138.256C1208.13 138.048 1208.29 137.736 1208.71 137.32C1210.68 137.216 1212.35 136.592 1213.7 135.448C1215.05 134.304 1216.14 133.056 1216.97 131.704C1217.91 130.248 1218.53 129.208 1218.85 128.584C1218.33 128.688 1217.81 128.844 1217.29 129.052C1216.77 129.156 1216.25 129.26 1215.73 129.364C1213.33 130.092 1210.73 130.768 1207.93 131.392C1205.22 132.016 1202.57 132.276 1199.97 132.172C1197.68 132.068 1195.55 131.6 1193.57 130.768C1191.6 129.936 1190.14 128.376 1189.21 126.088C1190.35 125.464 1191.7 125.1 1193.26 124.996C1194.93 124.892 1195.97 124.216 1196.38 122.968C1200.33 122.76 1204.23 122.5 1208.08 122.188C1211.93 121.772 1215.21 120.836 1217.91 119.38C1220.93 119.484 1224.1 119.484 1227.43 119.38C1230.86 119.172 1234.39 118.964 1238.03 118.756C1239.7 118.652 1241.36 118.548 1243.03 118.444C1244.69 118.34 1246.35 118.236 1248.02 118.132C1251.76 117.924 1255.45 117.82 1259.09 117.82C1262.73 117.716 1266.11 117.924 1269.23 118.444C1270.07 118.236 1270.59 117.768 1270.79 117.04C1271 116.208 1271.47 115.636 1272.2 115.324C1276.77 115.636 1280.67 116.624 1283.9 118.288C1287.12 119.848 1290.24 121.564 1293.26 123.436ZM1273.29 69.148C1271.94 70.604 1270.12 71.592 1267.83 72.112C1265.54 72.632 1263.62 73.516 1262.06 74.764C1262.06 75.908 1262.01 77.26 1261.9 78.82C1261.9 80.38 1261.9 81.992 1261.9 83.656C1261.9 88.128 1261.85 92.86 1261.75 97.852C1261.64 102.844 1261.23 106.952 1260.5 110.176C1259.77 113.4 1258.31 115.116 1256.13 115.324C1253.95 115.428 1251.29 114.752 1248.17 113.296C1246.61 113.4 1245 113.608 1243.34 113.92C1241.67 114.128 1240.01 114.388 1238.35 114.7C1235.95 115.116 1233.56 115.532 1231.17 115.948C1228.78 116.26 1226.54 116.364 1224.46 116.26C1222.28 116.156 1220.25 115.74 1218.38 115.012C1216.61 114.284 1215.1 113.036 1213.85 111.268C1213.65 110.02 1213.59 108.668 1213.7 107.212C1213.8 105.756 1213.91 104.248 1214.01 102.688C1214.22 100.296 1214.32 97.904 1214.32 95.512C1214.43 93.12 1214.06 90.988 1213.23 89.116C1214.89 84.748 1214.89 80.952 1213.23 77.728C1211.57 74.504 1208.86 72.84 1205.12 72.736C1205.53 71.592 1206.21 70.5 1207.15 69.46C1208.19 68.42 1208.86 67.12 1209.17 65.56C1211.67 65.248 1214.84 64.884 1218.69 64.468C1222.54 63.948 1226.59 63.428 1230.86 62.908C1235.23 62.388 1239.28 62.076 1243.03 61.972C1244.59 59.892 1246.67 58.8 1249.27 58.696C1251.97 58.488 1254.15 58.54 1255.82 58.852C1257.9 59.164 1260.08 59.632 1262.37 60.256C1264.66 60.88 1266.79 61.868 1268.77 63.22C1270.74 64.572 1272.25 66.548 1273.29 69.148ZM1259.87 145.12C1259.35 144.184 1259.04 143.404 1258.94 142.78C1258.83 142.052 1258.83 141.376 1258.94 140.752C1258.94 140.44 1258.94 140.076 1258.94 139.66C1259.04 139.244 1259.04 138.828 1258.94 138.412C1258.31 138.1 1257.69 137.944 1257.07 137.944C1256.44 137.84 1255.87 137.84 1255.35 137.944C1255.04 137.944 1254.67 137.996 1254.26 138.1C1253.95 138.1 1253.63 138.048 1253.32 137.944C1253.32 139.608 1253.48 140.752 1253.79 141.376C1254.1 142 1254.26 142.884 1254.26 144.028C1253.63 144.444 1253.17 145.016 1252.85 145.744C1252.65 146.472 1252.13 146.94 1251.29 147.148C1250.15 150.372 1248.59 153.284 1246.61 155.884C1244.74 158.38 1242.77 160.824 1240.69 163.216C1238.71 165.504 1236.73 167.792 1234.76 170.08C1232.89 172.368 1231.38 174.812 1230.23 177.412C1231.59 178.348 1233.15 178.764 1234.91 178.66C1236.79 178.452 1238.5 178.14 1240.06 177.724C1241 177.516 1241.83 177.36 1242.56 177.256C1243.29 177.152 1243.81 177.204 1244.12 177.412C1243.7 177.828 1243.39 178.348 1243.18 178.972C1243.08 179.596 1243.39 179.752 1244.12 179.44C1244.74 179.128 1245.05 178.452 1245.05 177.412C1245.05 176.372 1245.42 175.332 1246.15 174.292C1246.35 173.98 1246.72 173.772 1247.24 173.668C1247.76 173.46 1248.07 173.304 1248.17 173.2C1249.11 171.744 1249.84 170.184 1250.36 168.52C1250.98 166.752 1252.28 165.452 1254.26 164.62C1255.61 161.708 1256.6 158.536 1257.22 155.104C1257.95 151.568 1258.83 148.24 1259.87 145.12ZM1248.64 89.584C1248.54 88.44 1248.49 87.244 1248.49 85.996C1248.59 84.644 1248.64 83.344 1248.64 82.096C1248.75 79.392 1248.75 76.844 1248.64 74.452C1248.54 71.956 1247.86 70.032 1246.61 68.68C1243.08 68.472 1239.18 68.836 1234.91 69.772C1230.75 70.604 1227.11 71.592 1223.99 72.736C1224.93 74.608 1225.29 76.688 1225.09 78.976C1224.98 81.16 1224.77 83.344 1224.46 85.528C1224.36 86.048 1224.25 86.516 1224.15 86.932C1224.15 87.348 1224.1 87.764 1223.99 88.18C1226.7 88.18 1229.09 87.92 1231.17 87.4C1233.35 86.88 1235.43 86.256 1237.41 85.528C1239.59 85.944 1241.57 86.672 1243.34 87.712C1245.11 88.752 1246.87 89.376 1248.64 89.584ZM1248.64 91.144C1246.87 91.352 1245.16 91.612 1243.49 91.924C1241.93 92.236 1240.32 92.548 1238.66 92.86C1236.16 93.484 1233.72 94.004 1231.33 94.42C1228.93 94.732 1226.49 94.836 1223.99 94.732C1223.68 95.98 1223.53 97.384 1223.53 98.944C1223.53 100.4 1223.53 101.908 1223.53 103.468C1223.53 104.3 1223.53 105.132 1223.53 105.964C1223.53 106.692 1223.53 107.42 1223.53 108.148C1225.5 108.772 1227.58 108.98 1229.77 108.772C1231.95 108.46 1234.19 108.096 1236.47 107.68C1236.68 107.68 1237.05 107.628 1237.57 107.524C1239.54 107.108 1241.47 106.796 1243.34 106.588C1245.21 106.38 1246.98 106.536 1248.64 107.056V91.144Z" fill="black"/>
</g>
<defs>
<clipPath id="clip0_61_19">
<rect width="1307" height="240" fill="white"/>
</clipPath>
</defs>
</svg>
