<svg width="977" height="202" viewBox="0 0 977 202" fill="none" xmlns="http://www.w3.org/2000/svg">
<path d="M38.016 181L4.48 88.84H15.488L42.496 162.824L69.376 88.84H81.92L108.928 162.824L135.68 88.84H146.944L113.408 181H104.32L75.648 102.28L46.976 181H38.016ZM159.431 181C156.615 181 154.012 180.317 151.623 178.952C149.319 177.501 147.442 175.624 145.991 173.32C144.626 170.931 143.943 168.328 143.943 165.512V122.248C143.943 119.432 144.626 116.872 145.991 114.568C147.442 112.179 149.319 110.301 151.623 108.936C154.012 107.485 156.615 106.76 159.431 106.76H203.975C206.876 106.76 209.479 107.485 211.783 108.936C214.172 110.301 216.05 112.179 217.415 114.568C218.866 116.872 219.591 119.432 219.591 122.248V149.128H154.439V165.512C154.439 166.877 154.908 168.072 155.847 169.096C156.871 170.035 158.066 170.504 159.431 170.504H219.591V181H159.431ZM154.439 138.632H208.967V122.248C208.967 120.883 208.455 119.731 207.431 118.792C206.492 117.768 205.34 117.256 203.975 117.256H159.431C158.066 117.256 156.871 117.768 155.847 118.792C154.908 119.731 154.439 120.883 154.439 122.248V138.632ZM229.112 181V82.44H239.608V106.76H289.272C292.088 106.76 294.648 107.485 296.952 108.936C299.341 110.301 301.219 112.179 302.584 114.568C304.035 116.872 304.76 119.432 304.76 122.248V165.512C304.76 168.328 304.035 170.931 302.584 173.32C301.219 175.624 299.341 177.501 296.952 178.952C294.648 180.317 292.088 181 289.272 181H229.112ZM244.728 170.504H289.272C290.637 170.504 291.789 170.035 292.728 169.096C293.752 168.072 294.264 166.877 294.264 165.512V122.248C294.264 120.883 293.752 119.731 292.728 118.792C291.789 117.768 290.637 117.256 289.272 117.256H244.728C243.363 117.256 242.168 117.768 241.144 118.792C240.12 119.731 239.608 120.883 239.608 122.248V165.512C239.608 166.877 240.12 168.072 241.144 169.096C242.168 170.035 243.363 170.504 244.728 170.504ZM345.975 181V99.208H305.015V88.84H397.175V99.208H356.343V181H345.975ZM412.636 181C409.82 181 407.217 180.317 404.828 178.952C402.524 177.501 400.647 175.624 399.196 173.32C397.831 170.931 397.148 168.328 397.148 165.512V122.248C397.148 119.432 397.831 116.872 399.196 114.568C400.647 112.179 402.524 110.301 404.828 108.936C407.217 107.485 409.82 106.76 412.636 106.76H457.18C460.081 106.76 462.684 107.485 464.988 108.936C467.377 110.301 469.255 112.179 470.62 114.568C472.071 116.872 472.796 119.432 472.796 122.248V149.128H407.644V165.512C407.644 166.877 408.113 168.072 409.052 169.096C410.076 170.035 411.271 170.504 412.636 170.504H472.796V181H412.636ZM407.644 138.632H462.172V122.248C462.172 120.883 461.66 119.731 460.636 118.792C459.697 117.768 458.545 117.256 457.18 117.256H412.636C411.271 117.256 410.076 117.768 409.052 118.792C408.113 119.731 407.644 120.883 407.644 122.248V138.632ZM497.481 181C494.665 181 492.062 180.317 489.673 178.952C487.369 177.501 485.492 175.624 484.041 173.32C482.676 170.931 481.993 168.328 481.993 165.512V122.248C481.993 119.432 482.676 116.872 484.041 114.568C485.492 112.179 487.369 110.301 489.673 108.936C492.062 107.485 494.665 106.76 497.481 106.76H557.385V117.256H497.481C496.116 117.256 494.921 117.768 493.897 118.792C492.958 119.731 492.489 120.883 492.489 122.248V165.512C492.489 166.877 492.958 168.072 493.897 169.096C494.921 170.035 496.116 170.504 497.481 170.504H557.641V181H497.481ZM566.942 181V82.44H577.438V106.76H627.102C629.918 106.76 632.478 107.485 634.782 108.936C637.171 110.301 639.049 112.179 640.414 114.568C641.865 116.872 642.59 119.432 642.59 122.248V181H632.094V122.248C632.094 120.883 631.582 119.731 630.558 118.792C629.619 117.768 628.467 117.256 627.102 117.256H582.558C581.193 117.256 579.998 117.768 578.974 118.792C577.95 119.731 577.438 120.883 577.438 122.248V181H566.942ZM811.718 89.896C811.198 91.04 810.054 91.768 808.286 92.08C806.622 92.392 805.062 92.496 803.606 92.392C802.774 92.392 801.89 92.392 800.954 92.392C800.018 92.288 799.082 92.184 798.146 92.08C793.466 91.872 788.526 91.716 783.326 91.612C778.23 91.404 773.654 91.664 769.598 92.392C768.87 93.848 767.934 95.304 766.79 96.76C765.646 98.112 764.606 99.256 763.67 100.192C762.734 101.128 762.266 101.596 762.266 101.596C763.826 101.596 765.386 101.544 766.946 101.44C768.61 101.232 770.274 101.024 771.938 100.816C774.018 100.608 776.098 100.452 778.178 100.348C780.362 100.14 782.494 100.036 784.574 100.036C787.59 100.14 790.502 100.504 793.31 101.128C796.118 101.752 798.822 102.948 801.422 104.716C801.006 105.964 800.954 106.9 801.266 107.524C801.578 108.148 801.942 108.668 802.358 109.084C802.774 109.5 803.086 109.968 803.294 110.488C803.606 110.904 803.606 111.58 803.294 112.516C801.63 112.204 800.278 112.308 799.238 112.828C798.302 113.244 797.418 113.712 796.586 114.232C796.17 114.544 795.754 114.804 795.338 115.012C795.026 115.22 794.61 115.428 794.09 115.636C794.194 117.924 794.298 120.108 794.402 122.188C794.506 124.268 794.61 126.244 794.714 128.116C794.922 131.756 795.078 135.344 795.182 138.88C795.286 142.312 795.286 146.004 795.182 149.956C795.182 153.908 794.974 158.484 794.558 163.684C794.35 163.892 793.934 164.048 793.31 164.152C792.79 164.256 792.322 164.464 791.906 164.776C791.594 164.984 791.594 165.556 791.906 166.492C789.514 167.844 787.694 168 786.446 166.96C785.198 165.816 784.002 164.464 782.858 162.904C782.546 162.384 782.234 161.916 781.922 161.5C781.61 161.084 781.298 160.668 780.986 160.252C779.53 160.46 777.866 160.616 775.994 160.72C774.122 160.824 772.146 160.876 770.066 160.876C765.802 160.98 761.382 161.24 756.806 161.656C752.334 161.968 748.33 163.008 744.794 164.776C743.13 163.32 741.362 162.02 739.49 160.876C737.722 159.628 736.734 157.86 736.526 155.572C736.422 154.74 736.474 153.908 736.682 153.076C736.89 152.14 737.15 151.152 737.462 150.112C738.086 148.24 738.45 146.368 738.554 144.496C738.762 142.624 737.878 141.064 735.902 139.816C735.798 139.192 736.214 138.932 737.15 139.036C738.19 139.14 738.71 139.192 738.71 139.192C738.71 138.36 738.71 137.528 738.71 136.696C738.814 135.76 738.918 134.876 739.022 134.044C739.23 131.86 739.282 129.832 739.178 127.96C739.074 126.088 738.19 124.84 736.526 124.216C736.63 123.384 737.15 122.968 738.086 122.968C739.022 122.968 739.542 122.604 739.646 121.876C739.438 119.068 738.294 117.196 736.214 116.26C734.134 115.324 731.95 114.492 729.662 113.764C730.182 112.724 730.91 111.892 731.846 111.268C732.782 110.644 733.666 110.02 734.498 109.396C735.33 108.668 735.798 107.628 735.902 106.276C738.606 105.548 741.362 105.028 744.17 104.716C747.082 104.404 749.526 103.572 751.502 102.22C753.582 100.868 754.778 98.84 755.09 96.136C753.946 94.472 752.282 93.64 750.098 93.64C748.434 93.64 746.614 94.056 744.638 94.888C742.766 95.72 740.842 96.552 738.866 97.384C736.994 98.112 735.226 98.476 733.562 98.476C732.418 98.476 731.326 98.164 730.286 97.54C729.35 96.916 728.57 95.824 727.946 94.264C727.634 94.472 727.27 94.368 726.854 93.952C726.334 93.64 726.022 93.796 725.918 94.42C724.774 92.652 723.63 90.884 722.486 89.116C721.446 87.348 720.666 85.268 720.146 82.876C721.706 82.668 723.162 82.772 724.514 83.188C725.97 83.5 727.374 83.864 728.726 84.28C729.974 84.696 731.222 85.06 732.47 85.372C733.718 85.684 735.018 85.788 736.37 85.684C741.882 85.06 747.706 84.54 753.842 84.124C759.978 83.604 767.31 83.136 775.838 82.72C778.126 80.016 779.894 76.844 781.142 73.204C782.494 69.46 784.106 65.976 785.978 62.752C784.938 61.504 784.21 60.256 783.794 59.008C783.378 57.76 783.118 56.46 783.014 55.108C784.262 54.588 785.822 54.64 787.694 55.264C789.566 55.784 791.438 56.668 793.31 57.916C795.286 59.06 796.898 60.36 798.146 61.816C799.498 63.272 800.174 64.572 800.174 65.716C800.278 67.38 799.81 68.784 798.77 69.928C797.73 71.072 796.482 72.06 795.026 72.892C793.05 74.036 791.022 75.128 788.942 76.168C786.862 77.208 785.51 78.508 784.886 80.068C784.158 79.86 784.054 79.548 784.574 79.132C785.094 78.716 785.354 78.508 785.354 78.508C784.522 78.508 783.95 78.664 783.638 78.976C783.326 79.288 783.066 79.6 782.858 79.912C782.65 80.432 782.286 80.848 781.766 81.16C781.35 81.472 780.414 81.576 778.958 81.472C778.958 81.888 779.322 82.252 780.05 82.564C780.882 82.772 781.818 82.876 782.858 82.876C784.418 82.876 786.03 82.668 787.694 82.252C789.358 81.836 790.398 81.264 790.814 80.536C795.078 81.368 799.082 82.564 802.826 84.124C806.674 85.58 809.638 87.504 811.718 89.896ZM824.822 181.156C824.822 182.716 824.354 183.912 823.418 184.744C822.482 185.68 821.39 186.408 820.142 186.928C818.998 187.552 817.958 188.176 817.022 188.8C816.086 189.424 815.566 190.308 815.462 191.452C812.03 191.764 808.546 192.44 805.01 193.48C801.578 194.52 798.094 195.04 794.558 195.04C789.67 195.04 784.782 194.312 779.894 192.856C775.006 191.504 770.43 189.944 766.166 188.176C762.006 186.408 758.522 184.9 755.714 183.652C753.738 182.716 750.878 181.52 747.134 180.064C743.494 178.608 739.49 177.308 735.122 176.164C730.754 175.02 726.49 174.448 722.33 174.448C718.482 174.448 714.686 174.916 710.942 175.852C707.198 176.684 703.714 178.14 700.49 180.22C698.93 180.532 697.682 180.48 696.746 180.064C695.914 179.648 695.134 179.18 694.406 178.66C693.99 178.348 693.574 178.088 693.158 177.88C692.742 177.568 692.274 177.308 691.754 177.1C691.442 175.956 690.87 174.968 690.038 174.136C689.31 173.304 688.53 172.472 687.698 171.64C686.658 170.6 685.67 169.508 684.734 168.364C683.902 167.116 683.59 165.66 683.798 163.996C684.63 163.892 685.514 163.944 686.45 164.152C687.49 164.36 688.582 164.62 689.726 164.932C691.39 165.348 693.21 165.764 695.186 166.18C697.266 166.492 699.606 166.492 702.206 166.18C702.934 166.076 703.61 165.92 704.234 165.712C704.962 165.504 705.638 165.296 706.262 165.088C707.198 164.776 708.186 164.516 709.226 164.308C710.266 164.1 711.306 164.048 712.346 164.152C713.282 161.76 713.75 159.68 713.75 157.912C713.75 154.896 712.866 152.452 711.098 150.58C709.33 148.708 707.406 146.992 705.326 145.432C703.558 144.08 701.946 142.728 700.49 141.376C699.138 139.92 698.462 138.152 698.462 136.072C698.566 133.888 699.294 132.068 700.646 130.612C702.102 129.156 703.558 127.648 705.014 126.088C706.574 124.528 707.51 122.552 707.822 120.16C705.95 119.328 703.87 119.224 701.582 119.848C699.398 120.368 697.214 120.992 695.03 121.72C693.678 122.24 692.378 122.708 691.13 123.124C689.882 123.436 688.79 123.592 687.854 123.592C685.67 121.408 683.694 119.068 681.926 116.572C680.262 113.972 678.91 111.788 677.87 110.02C676.934 108.148 676.466 107.212 676.466 107.212C679.378 107.94 682.81 108.668 686.762 109.396C690.714 110.02 694.718 110.176 698.774 109.864C702.83 109.448 706.418 108.2 709.538 106.12C711.202 106.64 713.178 107.368 715.466 108.304C717.858 109.24 720.042 110.332 722.018 111.58C724.098 112.724 725.45 114.076 726.074 115.636C726.074 117.3 725.502 118.444 724.358 119.068C723.214 119.692 722.018 120.264 720.77 120.784C718.69 123.488 716.662 126.348 714.686 129.364C712.814 132.276 711.046 135.344 709.382 138.568C711.358 140.752 713.542 142.728 715.934 144.496C718.326 146.264 720.406 148.24 722.174 150.424C723.942 152.608 724.826 155.364 724.826 158.692C724.826 160.668 724.462 162.748 723.734 164.932C729.558 165.14 735.694 165.868 742.142 167.116C748.59 168.26 755.038 169.404 761.486 170.548C768.038 171.692 774.278 172.368 780.206 172.576C782.494 172.68 784.678 172.732 786.758 172.732C788.942 172.628 791.074 172.524 793.154 172.42C797.21 172.316 801.006 172.316 804.542 172.42C808.182 172.524 811.51 173.096 814.526 174.136C816.502 174.76 818.322 175.644 819.986 176.788C821.754 177.932 823.366 179.388 824.822 181.156ZM780.674 152.92C780.986 150.84 781.09 148.916 780.986 147.148C780.986 145.276 780.934 143.404 780.83 141.532C780.83 140.596 780.778 139.66 780.674 138.724C780.674 137.684 780.674 136.644 780.674 135.604C780.674 134.876 780.674 134.2 780.674 133.576C780.674 132.848 780.674 132.068 780.674 131.236C780.778 127.492 780.726 123.488 780.518 119.224C780.31 114.856 779.374 111.06 777.71 107.836C772.406 107.94 767.414 108.304 762.734 108.928C758.054 109.552 753.894 110.748 750.254 112.516C749.942 113.868 749.682 115.272 749.474 116.728C749.266 118.184 749.266 119.796 749.474 121.564C754.986 120.732 759.874 120.42 764.138 120.628C768.506 120.732 772.146 122.604 775.058 126.244C770.69 126.868 766.114 127.544 761.33 128.272C756.546 128.896 752.49 129.26 749.162 129.364C748.746 130.404 748.59 131.704 748.694 133.264C748.798 134.72 748.694 136.02 748.382 137.164C751.814 136.644 755.246 136.28 758.678 136.072C762.214 135.76 765.594 136.02 768.818 136.852C772.146 137.58 775.11 139.244 777.71 141.844C768.142 143.092 758.626 144.132 749.162 144.964C749.162 145.38 749.162 145.848 749.162 146.368C749.162 146.784 749.162 147.252 749.162 147.772C749.162 148.604 749.11 149.54 749.006 150.58C749.006 151.516 748.954 152.452 748.85 153.388C752.074 153.596 754.986 153.648 757.586 153.544C760.186 153.336 762.682 153.128 765.074 152.92C767.778 152.608 770.378 152.4 772.874 152.296C775.37 152.192 777.97 152.4 780.674 152.92ZM710.474 88.18C707.666 89.22 705.222 89.532 703.142 89.116C701.166 88.7 699.398 87.816 697.838 86.464C695.446 84.384 693.47 81.68 691.91 78.352C690.35 74.92 688.79 71.904 687.23 69.304C690.454 69.928 693.782 70.864 697.214 72.112C700.75 73.36 703.766 75.232 706.262 77.728C708.758 80.224 710.162 83.708 710.474 88.18ZM754.154 72.58C755.09 75.804 754.57 79.236 752.594 82.876C750.098 82.876 748.174 82.252 746.822 81.004C745.47 79.756 744.222 78.352 743.078 76.792C742.454 75.96 741.778 75.128 741.05 74.296C740.426 73.464 739.646 72.736 738.71 72.112C739.126 69.408 739.282 67.224 739.178 65.56C739.178 63.792 739.074 62.024 738.866 60.256C738.866 60.048 738.866 59.892 738.866 59.788C742.194 60.516 745.314 62.024 748.226 64.312C751.242 66.496 753.218 69.252 754.154 72.58ZM973.178 123.436C972.45 125.62 971.098 126.816 969.122 127.024C968.394 127.128 967.614 127.128 966.782 127.024C965.95 126.92 965.118 126.764 964.286 126.556C963.87 126.452 963.402 126.348 962.882 126.244C962.362 126.14 961.894 126.088 961.478 126.088C954.822 125.464 947.49 125.152 939.482 125.152C931.266 125.152 922.842 125.464 914.21 126.088C913.482 126.92 912.702 127.96 911.87 129.208C911.142 130.352 910.57 131.34 910.154 132.172C911.61 132.38 913.378 132.432 915.458 132.328C917.642 132.224 919.982 132.12 922.478 132.016C924.662 131.912 926.898 131.808 929.186 131.704C931.474 131.6 933.658 131.6 935.738 131.704C936.258 131.392 936.622 130.976 936.83 130.456C937.038 129.936 937.35 129.52 937.766 129.208C942.134 128.48 945.878 128.74 948.998 129.988C952.222 131.132 955.342 132.588 958.358 134.356C959.606 135.084 960.906 135.812 962.258 136.54C963.61 137.164 965.014 137.788 966.47 138.412C966.47 138.724 966.574 139.14 966.782 139.66C966.886 139.972 966.99 140.336 967.094 140.752C967.198 141.064 967.198 141.48 967.094 142C965.118 142.416 963.35 143.04 961.79 143.872C960.23 144.704 958.566 145.432 956.798 146.056C957.11 146.68 957.162 147.2 956.954 147.616C956.746 148.032 956.434 148.5 956.018 149.02C955.81 149.332 955.55 149.696 955.238 150.112C955.03 150.424 954.874 150.788 954.77 151.204C953.938 153.492 953.106 156.404 952.274 159.94C951.442 163.476 950.454 166.856 949.31 170.08C948.166 173.2 946.71 175.436 944.942 176.788C944.942 177.1 945.046 177.464 945.254 177.88C945.566 178.296 945.67 178.66 945.566 178.972C942.342 181.676 939.534 184.432 937.142 187.24C934.75 190.152 932.046 192.18 929.03 193.324C926.014 194.468 922.79 194.416 919.358 193.168C916.03 192.024 913.118 190.516 910.622 188.644C909.27 187.604 907.918 186.408 906.566 185.056C905.318 183.704 904.434 183.028 903.914 183.028C903.498 183.028 903.03 183.184 902.51 183.496C902.094 183.912 901.678 184.328 901.262 184.744C900.95 185.056 900.638 185.316 900.326 185.524C900.014 185.836 899.702 186.044 899.39 186.148C897.31 186.668 895.75 186.616 894.71 185.992C893.67 185.368 892.682 184.64 891.746 183.808C891.434 183.496 891.07 183.184 890.654 182.872C890.342 182.56 889.978 182.248 889.562 181.936C891.538 181.208 893.15 180.116 894.398 178.66C895.75 177.1 896.998 175.54 898.142 173.98C899.39 172.316 900.846 171.016 902.51 170.08C902.51 170.6 902.25 171.172 901.73 171.796C901.418 172.108 901.158 172.472 900.95 172.888C900.742 173.2 900.742 173.668 900.95 174.292C902.094 173.252 903.082 172.056 903.914 170.704C904.746 169.352 905.422 167.48 905.942 165.088C910.206 161.76 913.638 157.912 916.238 153.544C918.838 149.072 921.438 144.184 924.038 138.88C923.414 138.152 922.478 137.892 921.23 138.1C919.982 138.308 918.838 138.568 917.798 138.88C917.486 139.92 917.486 141.48 917.798 143.56C915.406 146.16 913.014 148.864 910.622 151.672C908.334 154.48 905.578 156.872 902.354 158.848C902.874 159.576 902.666 160.408 901.73 161.344C900.794 162.28 899.65 163.32 898.298 164.464C897.882 164.88 897.466 165.244 897.05 165.556C896.634 165.868 896.218 166.232 895.802 166.648C895.074 167.376 894.346 168.208 893.618 169.144C892.994 169.976 892.318 170.652 891.59 171.172C891.174 171.484 890.654 171.692 890.03 171.796C889.406 171.9 888.938 172.056 888.626 172.264C887.274 173.304 886.13 174.396 885.194 175.54C884.258 176.684 883.01 177.308 881.45 177.412C881.034 177.412 880.67 177.36 880.358 177.256C880.15 177.152 879.89 177.048 879.578 176.944C879.37 176.84 879.11 176.736 878.798 176.632C878.486 176.424 878.174 176.32 877.862 176.32C877.862 174.968 877.55 174.136 876.926 173.824C876.302 173.512 875.886 172.992 875.678 172.264C877.238 171.952 878.434 171.38 879.266 170.548C880.202 169.716 881.138 168.884 882.074 168.052C883.114 167.22 884.414 166.752 885.974 166.648C885.558 165.816 885.922 164.88 887.066 163.84C888.21 162.696 889.406 162.072 890.654 161.968C890.55 161.656 890.238 161.5 889.718 161.5C889.302 161.5 889.094 161.5 889.094 161.5C892.11 158.588 895.074 155.468 897.986 152.14C900.898 148.812 903.758 145.276 906.566 141.532C904.59 141.116 902.666 141.584 900.794 142.936C899.026 144.288 897.414 145.64 895.958 146.992C895.854 147.096 895.75 147.2 895.646 147.304C893.67 149.176 891.694 151.152 889.718 153.232C887.846 155.312 885.558 156.872 882.854 157.912C882.334 158.12 881.138 158.692 879.266 159.628C877.498 160.46 875.626 160.876 873.65 160.876C873.546 160.044 873.078 159.628 872.246 159.628C871.414 159.524 870.894 159.108 870.686 158.38C871.726 156.612 873.026 155.156 874.586 154.012C876.146 152.868 877.55 151.568 878.798 150.112C876.51 150.528 873.598 151.256 870.062 152.296C866.526 153.232 862.938 154.428 859.298 155.884C856.802 156.924 854.41 158.016 852.122 159.16C849.834 160.304 847.806 161.604 846.038 163.06C845.83 163.268 845.57 163.528 845.258 163.84C845.05 164.048 844.842 164.256 844.634 164.464C843.698 165.4 842.658 166.232 841.514 166.96C840.37 167.584 838.81 167.48 836.834 166.648C835.794 166.128 834.546 165.14 833.09 163.684C831.634 162.228 830.282 160.98 829.034 159.94C828.722 159.628 828.41 159.368 828.098 159.16C827.89 158.952 827.63 158.744 827.318 158.536C826.278 157.6 825.55 156.768 825.134 156.04C824.822 155.312 824.77 153.856 824.978 151.672C824.978 151.672 825.186 151.776 825.602 151.984C826.018 152.192 826.33 151.932 826.538 151.204C828.93 152.348 831.374 152.972 833.87 153.076C836.47 153.18 839.018 152.972 841.514 152.452C844.218 151.932 846.87 151.152 849.47 150.112C852.07 149.072 854.514 148.084 856.802 147.148C857.322 143.3 857.582 139.14 857.582 134.668C857.686 130.196 857.738 125.568 857.738 120.784C857.738 119.744 857.738 118.756 857.738 117.82C857.738 116.78 857.738 115.792 857.738 114.856C855.97 114.648 854.254 114.752 852.59 115.168C851.03 115.584 849.47 116.104 847.91 116.728C846.35 117.248 844.738 117.768 843.074 118.288C841.41 118.704 839.642 118.912 837.77 118.912C835.066 117.144 832.622 114.804 830.438 111.892C828.254 108.876 826.434 105.548 824.978 101.908C827.994 100.66 831.166 100.608 834.494 101.752C837.822 102.792 840.474 104.248 842.45 106.12C844.946 105.6 847.338 105.08 849.626 104.56C851.914 103.936 854.306 103.416 856.802 103C857.01 94.264 856.334 87.088 854.774 81.472C853.318 75.752 851.082 70.812 848.066 66.652C848.066 65.82 848.274 65.3 848.69 65.092C849.21 64.78 849.522 64.26 849.626 63.532C852.122 64.676 854.774 65.768 857.582 66.808C860.494 67.848 863.094 69.096 865.382 70.552C867.67 71.904 869.074 73.828 869.594 76.324C869.802 77.052 869.802 77.78 869.594 78.508C869.49 79.132 869.282 79.704 868.97 80.224C868.866 80.64 868.762 81.056 868.658 81.472C868.554 81.784 868.502 82.096 868.502 82.408C868.502 83.136 868.502 83.864 868.502 84.592C868.502 85.32 868.502 86.048 868.502 86.776C868.606 88.44 868.658 90.26 868.658 92.236C868.658 94.108 868.45 96.344 868.034 98.944C870.426 100.4 873.182 101.544 876.302 102.376C879.422 103.104 881.97 104.352 883.946 106.12C882.906 108.616 880.93 110.124 878.018 110.644C875.106 111.164 872.142 111.684 869.126 112.204C868.294 115.428 867.722 118.912 867.41 122.656C867.098 126.296 866.63 129.312 866.006 131.704C866.63 132.12 866.89 132.744 866.786 133.576C866.786 134.408 866.37 134.98 865.538 135.292C865.538 135.396 865.59 135.604 865.694 135.916C866.11 136.644 866.474 137.684 866.786 139.036C867.098 140.284 866.682 141.272 865.538 142C866.994 143.352 868.918 144.184 871.31 144.496C873.702 144.704 876.042 145.068 878.33 145.588C878.746 145.796 878.954 146.056 878.954 146.368C878.954 146.68 878.902 146.992 878.798 147.304C878.694 147.616 878.59 147.928 878.486 148.24C878.486 148.552 878.59 148.864 878.798 149.176C881.398 148.344 883.426 147.044 884.882 145.276C886.442 143.404 888.21 141.792 890.186 140.44C890.186 140.024 890.03 139.712 889.718 139.504C889.51 139.296 889.302 139.088 889.094 138.88C888.678 138.672 888.366 138.464 888.158 138.256C888.054 138.048 888.21 137.736 888.626 137.32C890.602 137.216 892.266 136.592 893.618 135.448C894.97 134.304 896.062 133.056 896.894 131.704C897.83 130.248 898.454 129.208 898.766 128.584C898.246 128.688 897.726 128.844 897.206 129.052C896.686 129.156 896.166 129.26 895.646 129.364C893.254 130.092 890.654 130.768 887.846 131.392C885.142 132.016 882.49 132.276 879.89 132.172C877.602 132.068 875.47 131.6 873.494 130.768C871.518 129.936 870.062 128.376 869.126 126.088C870.27 125.464 871.622 125.1 873.182 124.996C874.846 124.892 875.886 124.216 876.302 122.968C880.254 122.76 884.154 122.5 888.002 122.188C891.85 121.772 895.126 120.836 897.83 119.38C900.846 119.484 904.018 119.484 907.346 119.38C910.778 119.172 914.314 118.964 917.954 118.756C919.618 118.652 921.282 118.548 922.946 118.444C924.61 118.34 926.274 118.236 927.938 118.132C931.682 117.924 935.374 117.82 939.014 117.82C942.654 117.716 946.034 117.924 949.154 118.444C949.986 118.236 950.506 117.768 950.714 117.04C950.922 116.208 951.39 115.636 952.118 115.324C956.694 115.636 960.594 116.624 963.818 118.288C967.042 119.848 970.162 121.564 973.178 123.436ZM953.21 69.148C951.858 70.604 950.038 71.592 947.75 72.112C945.462 72.632 943.538 73.516 941.978 74.764C941.978 75.908 941.926 77.26 941.822 78.82C941.822 80.38 941.822 81.992 941.822 83.656C941.822 88.128 941.77 92.86 941.666 97.852C941.562 102.844 941.146 106.952 940.418 110.176C939.69 113.4 938.234 115.116 936.05 115.324C933.866 115.428 931.214 114.752 928.094 113.296C926.534 113.4 924.922 113.608 923.258 113.92C921.594 114.128 919.93 114.388 918.266 114.7C915.874 115.116 913.482 115.532 911.09 115.948C908.698 116.26 906.462 116.364 904.382 116.26C902.198 116.156 900.17 115.74 898.298 115.012C896.53 114.284 895.022 113.036 893.774 111.268C893.566 110.02 893.514 108.668 893.618 107.212C893.722 105.756 893.826 104.248 893.93 102.688C894.138 100.296 894.242 97.904 894.242 95.512C894.346 93.12 893.982 90.988 893.15 89.116C894.814 84.748 894.814 80.952 893.15 77.728C891.486 74.504 888.782 72.84 885.038 72.736C885.454 71.592 886.13 70.5 887.066 69.46C888.106 68.42 888.782 67.12 889.094 65.56C891.59 65.248 894.762 64.884 898.61 64.468C902.458 63.948 906.514 63.428 910.778 62.908C915.146 62.388 919.202 62.076 922.946 61.972C924.506 59.892 926.586 58.8 929.186 58.696C931.89 58.488 934.074 58.54 935.738 58.852C937.818 59.164 940.002 59.632 942.29 60.256C944.578 60.88 946.71 61.868 948.686 63.22C950.662 64.572 952.17 66.548 953.21 69.148ZM939.794 145.12C939.274 144.184 938.962 143.404 938.858 142.78C938.754 142.052 938.754 141.376 938.858 140.752C938.858 140.44 938.858 140.076 938.858 139.66C938.962 139.244 938.962 138.828 938.858 138.412C938.234 138.1 937.61 137.944 936.986 137.944C936.362 137.84 935.79 137.84 935.27 137.944C934.958 137.944 934.594 137.996 934.178 138.1C933.866 138.1 933.554 138.048 933.242 137.944C933.242 139.608 933.398 140.752 933.71 141.376C934.022 142 934.178 142.884 934.178 144.028C933.554 144.444 933.086 145.016 932.774 145.744C932.566 146.472 932.046 146.94 931.214 147.148C930.07 150.372 928.51 153.284 926.534 155.884C924.662 158.38 922.686 160.824 920.606 163.216C918.63 165.504 916.654 167.792 914.678 170.08C912.806 172.368 911.298 174.812 910.154 177.412C911.506 178.348 913.066 178.764 914.834 178.66C916.706 178.452 918.422 178.14 919.982 177.724C920.918 177.516 921.75 177.36 922.478 177.256C923.206 177.152 923.726 177.204 924.038 177.412C923.622 177.828 923.31 178.348 923.102 178.972C922.998 179.596 923.31 179.752 924.038 179.44C924.662 179.128 924.974 178.452 924.974 177.412C924.974 176.372 925.338 175.332 926.066 174.292C926.274 173.98 926.638 173.772 927.158 173.668C927.678 173.46 927.99 173.304 928.094 173.2C929.03 171.744 929.758 170.184 930.278 168.52C930.902 166.752 932.202 165.452 934.178 164.62C935.53 161.708 936.518 158.536 937.142 155.104C937.87 151.568 938.754 148.24 939.794 145.12ZM928.562 89.584C928.458 88.44 928.406 87.244 928.406 85.996C928.51 84.644 928.562 83.344 928.562 82.096C928.666 79.392 928.666 76.844 928.562 74.452C928.458 71.956 927.782 70.032 926.534 68.68C922.998 68.472 919.098 68.836 914.834 69.772C910.674 70.604 907.034 71.592 903.914 72.736C904.85 74.608 905.214 76.688 905.006 78.976C904.902 81.16 904.694 83.344 904.382 85.528C904.278 86.048 904.174 86.516 904.07 86.932C904.07 87.348 904.018 87.764 903.914 88.18C906.618 88.18 909.01 87.92 911.09 87.4C913.274 86.88 915.354 86.256 917.33 85.528C919.514 85.944 921.49 86.672 923.258 87.712C925.026 88.752 926.794 89.376 928.562 89.584ZM928.562 91.144C926.794 91.352 925.078 91.612 923.414 91.924C921.854 92.236 920.242 92.548 918.578 92.86C916.082 93.484 913.638 94.004 911.246 94.42C908.854 94.732 906.41 94.836 903.914 94.732C903.602 95.98 903.446 97.384 903.446 98.944C903.446 100.4 903.446 101.908 903.446 103.468C903.446 104.3 903.446 105.132 903.446 105.964C903.446 106.692 903.446 107.42 903.446 108.148C905.422 108.772 907.502 108.98 909.686 108.772C911.87 108.46 914.106 108.096 916.394 107.68C916.602 107.68 916.966 107.628 917.486 107.524C919.462 107.108 921.386 106.796 923.258 106.588C925.13 106.38 926.898 106.536 928.562 107.056V91.144Z" fill="black"/>
</svg>
