<svg width="200" height="200" viewBox="0 0 200 200" fill="none" xmlns="http://www.w3.org/2000/svg">
<path d="M100 59.612C100.104 60.132 100.052 60.548 99.844 60.86C99.74 61.068 99.636 61.276 99.532 61.484C99.324 61.796 99.116 62.108 98.908 62.42C98.804 62.628 98.804 62.992 98.908 63.512H93.136C91.68 65.904 90.536 68.66 89.704 71.78C88.872 74.796 88.04 77.864 87.208 80.984C86.48 84.104 85.492 86.964 84.244 89.564C79.564 89.772 74.208 90.084 68.176 90.5C62.248 90.916 56.58 91.332 51.172 91.748C51.172 92.268 51.12 92.788 51.016 93.308C51.016 93.724 50.964 94.14 50.86 94.556C50.756 95.492 50.652 96.48 50.548 97.52C50.548 98.456 50.6 99.496 50.704 100.64C52.992 100.952 55.748 101.16 58.972 101.264C62.3 101.264 65.472 100.9 68.488 100.172C71.504 99.34 73.636 97.832 74.884 95.648C79.148 94.816 82.996 95.44 86.428 97.52C89.964 99.496 93.084 101.68 95.788 104.072C94.852 104.384 94.436 104.8 94.54 105.32C94.748 105.736 95.06 106.204 95.476 106.724C95.892 107.244 96.256 107.816 96.568 108.44C96.88 108.96 96.828 109.532 96.412 110.156C94.436 109.948 92.824 110.104 91.576 110.624C89.808 113.328 88.456 116.5 87.52 120.14C86.688 123.676 85.804 127.108 84.868 130.436C84.036 133.66 82.632 136.156 80.656 137.924C78.992 138.132 76.392 138.392 72.856 138.704C69.424 139.016 65.784 139.328 61.936 139.64C58.088 139.952 54.708 140.264 51.796 140.576C51.38 141.096 51.172 141.72 51.172 142.448C51.172 143.176 51.224 143.904 51.328 144.632C51.536 145.36 51.64 146.036 51.64 146.66C51.64 147.284 51.484 147.856 51.172 148.376C48.572 148.48 46.596 147.96 45.244 146.816C43.996 145.568 42.852 144.216 41.812 142.76C41.292 141.928 40.72 141.148 40.096 140.42C39.576 139.588 38.9 138.912 38.068 138.392C38.9 130.904 39.576 123.104 40.096 114.992C40.616 106.776 40.928 98.716 41.032 90.812C41.24 82.804 41.292 75.368 41.188 68.504C39.108 67.152 37.392 65.436 36.04 63.356C34.688 61.276 33.44 59.092 32.296 56.804C32.192 56.18 32.296 55.764 32.608 55.556C32.92 55.244 33.232 55.036 33.544 54.932C33.96 54.828 34.272 54.724 34.48 54.62C34.792 54.412 34.948 54.048 34.948 53.528C35.468 53.528 35.988 53.58 36.508 53.684C37.028 53.684 37.496 53.684 37.912 53.684C39.68 53.788 41.292 53.892 42.748 53.996C44.308 53.996 46.284 53.84 48.676 53.528C50.548 51.24 52.264 48.848 53.824 46.352C55.488 43.752 56.892 40.944 58.036 37.928C56.892 35.848 55.384 34.184 53.512 32.936C51.64 31.584 50.028 29.92 48.676 27.944C49.508 26.28 50.756 25.448 52.42 25.448C54.188 25.448 55.956 25.604 57.724 25.916C58.764 26.124 59.752 26.28 60.688 26.384C61.728 26.488 62.612 26.436 63.34 26.228C64.484 27.268 65.68 28.256 66.928 29.192C68.28 30.024 69.476 31.064 70.516 32.312C71.556 33.456 72.128 35.12 72.232 37.304C70.36 39.28 68.54 41.308 66.772 43.388C65.004 45.364 63.652 47.808 62.716 50.72C63.964 51.24 65.472 51.448 67.24 51.344C69.112 51.24 70.724 50.876 72.076 50.252C73.428 49.524 74 48.744 73.792 47.912C77.744 46.768 81.228 46.716 84.244 47.756C87.26 48.692 89.964 50.2 92.356 52.28C94.852 54.36 97.192 56.544 99.376 58.832C99.688 59.144 99.896 59.404 100 59.612ZM171.448 80.048C170.512 80.984 169.472 81.556 168.328 81.764C167.184 81.972 166.092 82.18 165.052 82.388C163.804 82.492 162.764 82.908 161.932 83.636C161.204 84.26 161.048 85.664 161.464 87.848C161.776 89.616 161.932 91.956 161.932 94.868C161.932 97.676 161.932 100.12 161.932 102.2C161.932 103.032 161.932 103.656 161.932 104.072C161.932 104.696 161.932 105.32 161.932 105.944C161.932 106.568 161.932 107.192 161.932 107.816C162.036 112.704 161.932 117.02 161.62 120.764C161.308 124.508 160.008 128.564 157.72 132.932C157.096 132.828 156.732 132.984 156.628 133.4C151.532 133.712 146.956 132.568 142.9 129.968C138.844 127.368 135.568 124.092 133.072 120.14C133.176 123.156 133.176 127.056 133.072 131.84C132.968 136.52 132.604 141.408 131.98 146.504C131.356 151.6 130.316 156.332 128.86 160.7C128.756 161.116 128.6 161.584 128.392 162.104C128.288 162.624 128.08 162.884 127.768 162.884C126.624 162.884 125.896 162.416 125.584 161.48C125.376 160.544 125.22 159.504 125.116 158.36C125.012 157.32 124.544 156.592 123.712 156.176C123.4 145.984 123.192 136.468 123.088 127.628C122.984 118.788 122.88 110.26 122.776 102.044C122.776 93.828 122.516 85.612 121.996 77.396C120.54 77.084 119.084 77.032 117.628 77.24C116.276 77.344 114.976 77.552 113.728 77.864C112.792 78.072 111.908 78.28 111.076 78.488C110.348 78.592 109.62 78.592 108.892 78.488C109.308 80.88 109.516 83.688 109.516 86.912C109.62 90.136 109.516 93.464 109.204 96.896C108.996 100.224 108.684 103.344 108.268 106.256C107.852 109.064 107.384 111.248 106.864 112.808C107.488 114.472 107.8 116.396 107.8 118.58C107.904 120.66 107.956 122.688 107.956 124.664C107.956 125.496 107.956 126.276 107.956 127.004C107.956 127.732 107.956 128.408 107.956 129.032C106.708 129.76 105.564 129.812 104.524 129.188C103.588 128.46 102.6 127.576 101.56 126.536C101.04 126.016 100.468 125.496 99.844 124.976C99.22 124.352 98.596 123.832 97.972 123.416C97.244 122.896 96.1 122.064 94.54 120.92C93.084 119.776 92.304 118.58 92.2 117.332C91.992 115.876 93.396 114.784 96.412 114.056C96.516 113.536 96.62 113.016 96.724 112.496C96.828 111.872 96.932 111.3 97.036 110.78C97.764 106.62 98.388 102.616 98.908 98.768C99.428 94.816 99.636 90.448 99.532 85.664C99.22 85.144 98.856 84.676 98.44 84.26C98.128 83.74 97.764 83.22 97.348 82.7C96.1 81.036 94.956 79.372 93.916 77.708C92.98 76.044 92.564 74.276 92.668 72.404C96.932 71.676 101.404 71.104 106.084 70.688C110.764 70.168 115.756 69.44 121.06 68.504C120.956 66.32 120.852 64.552 120.748 63.2C120.644 61.744 120.488 60.288 120.28 58.832C120.176 57.376 120.072 55.608 119.968 53.528C119.656 53.528 119.292 53.58 118.876 53.684C118.564 53.684 118.2 53.736 117.784 53.84C115.184 54.152 112.428 54.412 109.516 54.62C106.708 54.724 104.056 54.412 101.56 53.684C99.688 53.164 97.972 52.28 96.412 51.032C94.852 49.68 93.604 47.912 92.668 45.728C98.388 45 103.848 44.584 109.048 44.48C114.352 44.272 119.76 44.012 125.272 43.7C130.784 43.388 136.712 42.764 143.056 41.828C143.68 41.724 143.94 41.256 143.836 40.424C143.836 39.592 144.096 39.124 144.616 39.02C148.984 39.228 152.676 40.216 155.692 41.984C158.812 43.648 161.412 45.832 163.492 48.536C157.772 50.096 152.208 50.824 146.8 50.72C141.392 50.616 135.932 50.98 130.42 51.812C131.46 52.748 132.188 54.256 132.604 56.336C133.02 58.312 133.384 60.444 133.696 62.732C134.112 65.02 134.632 66.944 135.256 68.504C135.88 68.4 136.556 68.348 137.284 68.348C138.012 68.244 138.74 68.192 139.468 68.192C141.028 68.192 142.484 68.088 143.836 67.88C145.292 67.568 146.28 66.632 146.8 65.072C151.376 65.176 155.952 66.632 160.528 69.44C165.104 72.144 168.744 75.68 171.448 80.048ZM146.8 117.332C147.944 114.316 148.62 110.936 148.828 107.192C149.14 103.448 149.14 99.652 148.828 95.804C148.62 91.852 148.256 88.16 147.736 84.728C147.216 81.296 146.748 78.384 146.332 75.992C146.228 75.576 146.176 75.264 146.176 75.056C145.136 74.432 144.044 74.172 142.9 74.276C141.756 74.276 140.404 74.38 138.844 74.588C138.22 74.692 137.492 74.796 136.66 74.9C135.932 75.004 135.1 75.056 134.164 75.056C133.436 81.4 133.02 88.004 132.916 94.868C132.812 101.628 132.864 108.544 133.072 115.616C135.776 116.032 138.168 116.396 140.248 116.708C142.328 116.916 144.512 117.124 146.8 117.332ZM75.82 58.52C73.012 58 70.204 58 67.396 58.52C64.588 59.04 61.78 59.612 58.972 60.236C57.724 60.548 56.424 60.86 55.072 61.172C53.72 61.38 52.42 61.588 51.172 61.796C51.796 63.668 52.056 65.488 51.952 67.256C51.952 69.024 51.848 70.844 51.64 72.716C51.536 74.38 51.432 76.096 51.328 77.864C51.328 79.632 51.484 81.504 51.796 83.48C54.812 83.272 58.348 83.116 62.404 83.012C66.564 82.908 70.204 82.336 73.324 81.296C74.884 77.968 75.716 74.276 75.82 70.22C76.028 66.164 76.028 62.264 75.82 58.52ZM74.26 107.348C72.388 107.244 70.568 107.4 68.8 107.816C67.136 108.128 65.472 108.492 63.808 108.908C61.624 109.532 59.492 110 57.412 110.312C55.332 110.624 53.252 110.364 51.172 109.532C50.548 111.508 50.236 113.536 50.236 115.616C50.236 117.592 50.34 119.724 50.548 122.012C50.652 123.572 50.704 125.236 50.704 127.004C50.808 128.668 50.808 130.436 50.704 132.308C54.864 132.412 58.764 132.204 62.404 131.684C66.044 131.164 69.476 130.436 72.7 129.5C73.22 127.42 73.636 125.028 73.948 122.324C74.364 119.516 74.624 116.76 74.728 114.056C74.832 111.352 74.676 109.116 74.26 107.348Z" fill="black"/>
</svg>
